<?xml version="1.0" encoding="UTF-8"?>
<!DOCTYPE svg PUBLIC "-//W3C//DTD SVG 1.1//EN" "http://www.w3.org/Graphics/SVG/1.1/DTD/svg11.dtd">
<svg xmlns="http://www.w3.org/2000/svg" version="1.1" width="171px" height="173px" style="shape-rendering:geometricPrecision; text-rendering:geometricPrecision; image-rendering:optimizeQuality; fill-rule:evenodd; clip-rule:evenodd" xmlns:xlink="http://www.w3.org/1999/xlink">
<g><path style="opacity:0.259" fill="#ffe1b3" d="M 91.5,-0.5 C 92.1667,-0.5 92.8333,-0.5 93.5,-0.5C 97.5387,0.315794 101.539,1.31579 105.5,2.5C 100.29,2.39156 95.2895,1.7249 90.5,0.5C 91.1667,0.5 91.5,0.166667 91.5,-0.5 Z"/></g>
<g><path style="opacity:0.392" fill="#ffebc2" d="M 78.5,-0.5 C 79.1667,-0.5 79.8333,-0.5 80.5,-0.5C 80.5,-0.166667 80.5,0.166667 80.5,0.5C 75.9193,1.48996 71.2526,2.15662 66.5,2.5C 70.4295,1.17669 74.4295,0.17669 78.5,-0.5 Z"/></g>
<g><path style="opacity:1" fill="#fc8002" d="M 105.5,3.5 C 107.435,4.14952 109.435,4.48285 111.5,4.5C 112.78,5.93127 114.447,6.59794 116.5,6.5C 116.833,6.5 117.167,6.5 117.5,6.5C 118.287,8.10422 119.62,8.77089 121.5,8.5C 123.381,11.1293 126.047,12.4626 129.5,12.5C 129.973,13.9063 130.973,14.573 132.5,14.5C 132.973,15.9063 133.973,16.573 135.5,16.5C 136.539,18.5311 138.205,19.8645 140.5,20.5C 140.936,23.3523 142.603,25.0189 145.5,25.5C 145.833,26.5 146.5,27.1667 147.5,27.5C 147.833,28.5 148.5,29.1667 149.5,29.5C 150.08,31.7488 151.413,33.4154 153.5,34.5C 157.307,41.5007 160.474,48.8341 163,56.5C 163.74,58.3187 164.907,59.6521 166.5,60.5C 167.338,60.8417 167.672,61.5084 167.5,62.5C 167.205,64.7354 167.539,66.7354 168.5,68.5C 168.5,68.8333 168.5,69.1667 168.5,69.5C 168.194,72.3854 168.527,75.0521 169.5,77.5C 169.355,88.2587 168.355,98.9253 166.5,109.5C 164.928,112.215 163.928,115.215 163.5,118.5C 161.896,119.287 161.229,120.62 161.5,122.5C 159.952,122.821 159.285,123.821 159.5,125.5C 155.776,126.99 153.776,129.656 153.5,133.5C 152.5,133.5 151.5,133.5 150.5,133.5C 150.5,134.833 150.5,136.167 150.5,137.5C 149.075,138.922 148.075,140.589 147.5,142.5C 145.833,142.5 144.167,142.5 142.5,142.5C 142.5,144.167 142.5,145.833 142.5,147.5C 142.5,148.167 142.167,148.5 141.5,148.5C 139.596,148.738 138.262,149.738 137.5,151.5C 135.973,151.427 134.973,152.094 134.5,153.5C 132.167,153.5 129.833,153.5 127.5,153.5C 125.5,142.167 123.5,130.833 121.5,119.5C 120.986,114.162 120.319,108.829 119.5,103.5C 118.824,102.398 118.158,101.398 117.5,100.5C 117.167,98.5 116.833,96.5 116.5,94.5C 116.057,84.622 114.39,74.9553 111.5,65.5C 112.932,63.703 112.599,62.3697 110.5,61.5C 109.596,60.791 109.263,59.791 109.5,58.5C 107.366,48.9589 106.366,39.2923 106.5,29.5C 104.5,29.5 102.5,29.5 100.5,29.5C 100.187,36.7546 100.52,43.9213 101.5,51C 91.172,51.4998 80.8387,51.6665 70.5,51.5C 70.2948,44.2027 71.1282,37.2027 73,30.5C 71.5074,28.4402 69.6741,28.1068 67.5,29.5C 66.6258,31.7466 66.2924,34.0799 66.5,36.5C 64.7499,39.3554 63.9165,42.6887 64,46.5C 63.6667,46.1667 63.3333,45.8333 63,45.5C 62.6884,51.1995 62.1884,56.8661 61.5,62.5C 61.5,64.1667 61.5,65.8333 61.5,67.5C 61.7678,69.099 61.4345,70.4324 60.5,71.5C 59.5318,73.6074 59.1984,75.9407 59.5,78.5C 59.1667,78.5 58.8333,78.5 58.5,78.5C 56.7021,81.031 55.5354,84.031 55,87.5C 53.175,96.0503 52.0083,104.717 51.5,113.5C 51.5,113.833 51.5,114.167 51.5,114.5C 47.2862,125.331 44.9529,136.664 44.5,148.5C 41.5413,148.65 39.0413,147.65 37,145.5C 36.6666,147.047 37.1666,148.38 38.5,149.5C 39.6507,150.731 40.8173,150.731 42,149.5C 42.6667,151.167 42.6667,152.833 42,154.5C 41.3292,153.748 40.4959,153.414 39.5,153.5C 38.8333,153.5 38.1667,153.5 37.5,153.5C 36.4154,151.413 34.7488,150.08 32.5,149.5C 31.4154,147.413 29.7488,146.08 27.5,145.5C 27.1667,143.167 25.8333,141.833 23.5,141.5C 22.1882,137.363 19.8548,134.029 16.5,131.5C 16.1667,131.5 15.8333,131.5 15.5,131.5C 15.5,131.167 15.5,130.833 15.5,130.5C 15.573,128.973 14.9063,127.973 13.5,127.5C 12.9213,124.669 11.588,122.336 9.5,120.5C 9.77089,118.62 9.10422,117.287 7.5,116.5C 7.94649,113.99 7.27983,111.99 5.5,110.5C 5.5,110.167 5.5,109.833 5.5,109.5C 5.00745,107.194 4.67412,104.861 4.5,102.5C 4.00173,86.3844 5.00173,70.3844 7.5,54.5C 7.5,54.1667 7.5,53.8333 7.5,53.5C 9.36222,51.1089 10.6955,48.4422 11.5,45.5C 12.9063,45.0269 13.573,44.0269 13.5,42.5C 13.7329,40.9382 14.3995,39.6049 15.5,38.5C 16.7348,38.2786 17.7348,37.6119 18.5,36.5C 20.2111,33.8043 21.8777,31.1376 23.5,28.5C 25.1436,28.1898 26.1436,27.1898 26.5,25.5C 28.1898,25.1436 29.1898,24.1436 29.5,22.5C 32.0892,21.5806 34.0892,19.914 35.5,17.5C 37.4044,17.2624 38.7377,16.2624 39.5,14.5C 41.9663,13.7023 43.9663,12.369 45.5,10.5C 48.9433,9.94077 51.9433,8.60744 54.5,6.5C 54.8333,6.5 55.1667,6.5 55.5,6.5C 57.153,6.3404 58.4863,5.67373 59.5,4.5C 59.8333,4.5 60.1667,4.5 60.5,4.5C 61.8333,4.5 63.1667,4.5 64.5,4.5C 78.1057,2.17022 91.7723,1.83689 105.5,3.5 Z"/></g>
<g><path style="opacity:1" fill="#f09643" d="M 81.5,-0.5 C 84.5,-0.5 87.5,-0.5 90.5,-0.5C 90.5,-0.166667 90.5,0.166667 90.5,0.5C 95.2895,1.7249 100.29,2.39156 105.5,2.5C 105.5,2.83333 105.5,3.16667 105.5,3.5C 91.7723,1.83689 78.1057,2.17022 64.5,4.5C 65.1667,3.83333 65.8333,3.16667 66.5,2.5C 71.2526,2.15662 75.9193,1.48996 80.5,0.5C 81.1667,0.5 81.5,0.166667 81.5,-0.5 Z"/></g>
<g><path style="opacity:0.722" fill="#fcd5a2" d="M 66.5,2.5 C 65.8333,3.16667 65.1667,3.83333 64.5,4.5C 63.1667,4.5 61.8333,4.5 60.5,4.5C 62.1016,2.92606 64.1016,2.25939 66.5,2.5 Z"/></g>
<g><path style="opacity:0.416" fill="#fedeb6" d="M 105.5,3.5 C 105.5,3.16667 105.5,2.83333 105.5,2.5C 107.786,2.59495 109.786,3.26162 111.5,4.5C 109.435,4.48285 107.435,4.14952 105.5,3.5 Z"/></g>
<g><path style="opacity:0.176" fill="#fedead" d="M 111.5,4.5 C 113.698,4.12012 115.365,4.78679 116.5,6.5C 114.447,6.59794 112.78,5.93127 111.5,4.5 Z"/></g>
<g><path style="opacity:0.463" fill="#ffe4b8" d="M 59.5,4.5 C 58.4863,5.67373 57.153,6.3404 55.5,6.5C 56.287,4.89578 57.6203,4.22911 59.5,4.5 Z"/></g>
<g><path style="opacity:0.208" fill="#fde3b6" d="M 117.5,6.5 C 119.153,6.6596 120.486,7.32627 121.5,8.5C 119.62,8.77089 118.287,8.10422 117.5,6.5 Z"/></g>
<g><path style="opacity:0.016" fill="#fff2c9" d="M 54.5,6.5 C 51.9433,8.60744 48.9433,9.94077 45.5,10.5C 48.0884,8.40821 51.0884,7.07488 54.5,6.5 Z"/></g>
<g><path style="opacity:1" fill="#f9c07d" d="M 121.5,8.5 C 124.545,9.27938 127.211,10.6127 129.5,12.5C 126.047,12.4626 123.381,11.1293 121.5,8.5 Z"/></g>
<g><path style="opacity:0.29" fill="#fbd8ae" d="M 45.5,10.5 C 43.9663,12.369 41.9663,13.7023 39.5,14.5C 40.8021,12.1782 42.8021,10.8449 45.5,10.5 Z"/></g>
<g><path style="opacity:0.024" fill="#ffedc6" d="M 129.5,12.5 C 131.027,12.427 132.027,13.0937 132.5,14.5C 130.973,14.573 129.973,13.9063 129.5,12.5 Z"/></g>
<g><path style="opacity:0.012" fill="#feebd0" d="M 132.5,14.5 C 134.027,14.427 135.027,15.0937 135.5,16.5C 133.973,16.573 132.973,15.9063 132.5,14.5 Z"/></g>
<g><path style="opacity:0.478" fill="#fcd99e" d="M 39.5,14.5 C 38.7377,16.2624 37.4044,17.2624 35.5,17.5C 36.2623,15.7376 37.5956,14.7376 39.5,14.5 Z"/></g>
<g><path style="opacity:0.914" fill="#f9ce9c" d="M 135.5,16.5 C 137.754,17.1237 139.421,18.457 140.5,20.5C 138.205,19.8645 136.539,18.5311 135.5,16.5 Z"/></g>
<g><path style="opacity:0.882" fill="#f5c07f" d="M 35.5,17.5 C 34.0892,19.914 32.0892,21.5806 29.5,22.5C 30.9108,20.086 32.9108,18.4194 35.5,17.5 Z"/></g>
<g><path style="opacity:0.886" fill="#f8c491" d="M 29.5,22.5 C 29.1898,24.1436 28.1898,25.1436 26.5,25.5C 26.8102,23.8564 27.8102,22.8564 29.5,22.5 Z"/></g>
<g><path style="opacity:1" fill="#f4ae6a" d="M 140.5,20.5 C 142.549,21.8818 144.215,23.5484 145.5,25.5C 142.603,25.0189 140.936,23.3523 140.5,20.5 Z"/></g>
<g><path style="opacity:0.012" fill="#ffe9cc" d="M 145.5,25.5 C 146.833,25.5 147.5,26.1667 147.5,27.5C 146.5,27.1667 145.833,26.5 145.5,25.5 Z"/></g>
<g><path style="opacity:1" fill="#f1ba85" d="M 26.5,25.5 C 26.1436,27.1898 25.1436,28.1898 23.5,28.5C 23.8564,26.8102 24.8564,25.8102 26.5,25.5 Z"/></g>
<g><path style="opacity:0.004" fill="#ffeed2" d="M 147.5,27.5 C 148.833,27.5 149.5,28.1667 149.5,29.5C 148.5,29.1667 147.833,28.5 147.5,27.5 Z"/></g>
<g><path style="opacity:0.027" fill="#ffdea8" d="M 69.5,38.5 C 68.8826,38.3893 68.3826,38.056 68,37.5C 67.7585,41.4302 66.9251,45.0968 65.5,48.5C 65.5045,44.4659 65.8379,40.4659 66.5,36.5C 67.4511,35.0813 67.7845,33.4147 67.5,31.5C 68.5,31.5 69.5,31.5 70.5,31.5C 70.552,33.9029 70.2186,36.2362 69.5,38.5 Z"/></g>
<g><path style="opacity:0.498" fill="#fdd5a5" d="M 149.5,29.5 C 151.587,30.5846 152.92,32.2512 153.5,34.5C 151.413,33.4154 150.08,31.7488 149.5,29.5 Z"/></g>
<g><path style="opacity:1" fill="#f1b672" d="M 23.5,28.5 C 21.8777,31.1376 20.2111,33.8043 18.5,36.5C 17.7348,37.6119 16.7348,38.2786 15.5,38.5C 17.2076,34.4281 19.8743,31.0948 23.5,28.5 Z"/></g>
<g><path style="opacity:0.224" fill="#fbd99d" d="M 13.5,42.5 C 13.573,44.0269 12.9063,45.0269 11.5,45.5C 11.427,43.9731 12.0937,42.9731 13.5,42.5 Z"/></g>
<g><path style="opacity:1" fill="#ef8a2b" d="M 66.5,36.5 C 65.8379,40.4659 65.5045,44.4659 65.5,48.5C 63.9886,51.5443 63.322,54.8776 63.5,58.5C 63.5,59.5 63.5,60.5 63.5,61.5C 62.8333,61.8333 62.1667,62.1667 61.5,62.5C 62.1884,56.8661 62.6884,51.1995 63,45.5C 63.3333,45.8333 63.6667,46.1667 64,46.5C 63.9165,42.6887 64.7499,39.3554 66.5,36.5 Z"/></g>
<g><path style="opacity:0.01" fill="#fff3db" d="M 105.5,44.5 C 106.913,47.2186 107.58,50.2186 107.5,53.5C 105.882,50.8291 105.215,47.8291 105.5,44.5 Z"/></g>
<g><path style="opacity:0.063" fill="#ffe7c2" d="M 161.5,47.5 C 162.906,47.9731 163.573,48.9731 163.5,50.5C 162.094,50.0269 161.427,49.0269 161.5,47.5 Z"/></g>
<g><path style="opacity:0.435" fill="#ffdcae" d="M 11.5,45.5 C 10.6955,48.4422 9.36222,51.1089 7.5,53.5C 7.79362,50.2459 9.12695,47.5792 11.5,45.5 Z"/></g>
<g><path style="opacity:1" fill="#ef8824" d="M 109.5,58.5 C 109.167,58.5 108.833,58.5 108.5,58.5C 107.549,57.0813 107.216,55.4147 107.5,53.5C 107.58,50.2186 106.913,47.2186 105.5,44.5C 105.533,40.1311 105.2,35.7978 104.5,31.5C 103.5,31.5 102.5,31.5 101.5,31.5C 102.08,35.81 102.414,40.1434 102.5,44.5C 102.5,47.1667 102.5,49.8333 102.5,52.5C 91.5,52.5 80.5,52.5 69.5,52.5C 69.5,48.1667 69.5,43.8333 69.5,39.5C 69.5,39.1667 69.5,38.8333 69.5,38.5C 70.2186,36.2362 70.552,33.9029 70.5,31.5C 69.5,31.5 68.5,31.5 67.5,31.5C 67.7845,33.4147 67.4511,35.0813 66.5,36.5C 66.2924,34.0799 66.6258,31.7466 67.5,29.5C 69.6741,28.1068 71.5074,28.4402 73,30.5C 71.1282,37.2027 70.2948,44.2027 70.5,51.5C 80.8387,51.6665 91.172,51.4998 101.5,51C 100.52,43.9213 100.187,36.7546 100.5,29.5C 102.5,29.5 104.5,29.5 106.5,29.5C 106.366,39.2923 107.366,48.9589 109.5,58.5 Z"/></g>
<g><path style="opacity:0.082" fill="#fee6b1" d="M 105.5,44.5 C 104.683,42.0314 104.183,39.3647 104,36.5C 103.503,39.146 103.336,41.8127 103.5,44.5C 103.167,44.5 102.833,44.5 102.5,44.5C 102.414,40.1434 102.08,35.81 101.5,31.5C 102.5,31.5 103.5,31.5 104.5,31.5C 105.2,35.7978 105.533,40.1311 105.5,44.5 Z"/></g>
<g><path style="opacity:0.863" fill="#f2c68a" d="M 69.5,39.5 C 69.5,43.8333 69.5,48.1667 69.5,52.5C 80.5,52.5 91.5,52.5 102.5,52.5C 102.5,49.8333 102.5,47.1667 102.5,44.5C 102.833,44.5 103.167,44.5 103.5,44.5C 104.573,47.7209 104.573,50.8876 103.5,54C 91.8333,54.6667 80.1667,54.6667 68.5,54C 67.9032,52.9383 67.5698,51.7716 67.5,50.5C 67.9318,46.6501 68.5984,42.9835 69.5,39.5 Z"/></g>
<g><path style="opacity:1" fill="#ef9f52" d="M 153.5,34.5 C 154.458,34.9528 155.292,35.6195 156,36.5C 158.356,39.8786 160.189,43.5453 161.5,47.5C 161.427,49.0269 162.094,50.0269 163.5,50.5C 165.076,53.6548 166.076,56.9882 166.5,60.5C 164.907,59.6521 163.74,58.3187 163,56.5C 160.474,48.8341 157.307,41.5007 153.5,34.5 Z"/></g>
<g><path style="opacity:0.075" fill="#ffe8c7" d="M 65.5,48.5 C 65.4512,52.0781 64.7846,55.4115 63.5,58.5C 63.322,54.8776 63.9886,51.5443 65.5,48.5 Z"/></g>
<g><path style="opacity:0.608" fill="#ffce9d" d="M 104.5,57.5 C 104.5,59.1667 104.5,60.8333 104.5,62.5C 104.167,62.5 103.833,62.5 103.5,62.5C 103.5,60.8333 103.5,59.1667 103.5,57.5C 91.8333,57.5 80.1667,57.5 68.5,57.5C 68.5,58.5 68.5,59.5 68.5,60.5C 68.1667,60.5 67.8333,60.5 67.5,60.5C 67.5,59.5 67.5,58.5 67.5,57.5C 67.6107,56.8826 67.944,56.3826 68.5,56C 73.6667,55.8333 78.8333,55.6667 84,55.5C 90.1648,55.8978 96.1648,55.8978 102,55.5C 103.301,55.6387 104.134,56.3054 104.5,57.5 Z"/></g>
<g><path style="opacity:0.447" fill="#fde2bb" d="M 63.5,61.5 C 63.1249,63.6976 62.4582,65.6976 61.5,67.5C 61.5,65.8333 61.5,64.1667 61.5,62.5C 62.1667,62.1667 62.8333,61.8333 63.5,61.5 Z"/></g>
<g><path style="opacity:0.204" fill="#ffddaf" d="M 108.5,58.5 C 108.833,58.5 109.167,58.5 109.5,58.5C 109.263,59.791 109.596,60.791 110.5,61.5C 110.46,64.8806 110.793,68.2139 111.5,71.5C 109.551,67.5206 108.551,63.1872 108.5,58.5 Z"/></g>
<g><path style="opacity:0.718" fill="#fad2ac" d="M 167.5,62.5 C 168.306,63.9972 168.972,65.6639 169.5,67.5C 169.376,68.1067 169.043,68.44 168.5,68.5C 167.539,66.7354 167.205,64.7354 167.5,62.5 Z"/></g>
<g><path style="opacity:0.498" fill="#fbd0a3" d="M 67.5,57.5 C 67.5,58.5 67.5,59.5 67.5,60.5C 67.5,64.5 67.5,68.5 67.5,72.5C 79.8333,72.5 92.1667,72.5 104.5,72.5C 104.5,69.1667 104.5,65.8333 104.5,62.5C 104.5,60.8333 104.5,59.1667 104.5,57.5C 105.19,62.233 105.856,67.0664 106.5,72C 105.956,72.7172 105.289,73.2172 104.5,73.5C 104.167,73.5 103.833,73.5 103.5,73.5C 91.1976,74.0302 78.8643,73.8635 66.5,73C 66.0426,72.586 65.7093,72.086 65.5,71.5C 66.1175,66.7006 66.7841,62.034 67.5,57.5 Z"/></g>
<g><path style="opacity:1" fill="#ea8422" d="M 67.5,60.5 C 67.8333,60.5 68.1667,60.5 68.5,60.5C 68.5,64.1667 68.5,67.8333 68.5,71.5C 80.1667,71.5 91.8333,71.5 103.5,71.5C 103.5,68.5 103.5,65.5 103.5,62.5C 103.833,62.5 104.167,62.5 104.5,62.5C 104.5,65.8333 104.5,69.1667 104.5,72.5C 92.1667,72.5 79.8333,72.5 67.5,72.5C 67.5,68.5 67.5,64.5 67.5,60.5 Z"/></g>
<g><path style="opacity:1" fill="#fb8003" d="M 103.5,62.5 C 103.5,65.5 103.5,68.5 103.5,71.5C 91.8333,71.5 80.1667,71.5 68.5,71.5C 68.5,67.8333 68.5,64.1667 68.5,60.5C 68.5,59.5 68.5,58.5 68.5,57.5C 80.1667,57.5 91.8333,57.5 103.5,57.5C 103.5,59.1667 103.5,60.8333 103.5,62.5 Z"/></g>
<g><path style="opacity:0.835" fill="#f7d2a9" d="M 3.5,66.5 C 3.81277,70.0419 3.47944,73.3752 2.5,76.5C 1.95691,76.44 1.62358,76.1067 1.5,75.5C 2.08943,72.3596 2.7561,69.3596 3.5,66.5 Z"/></g>
<g><path style="opacity:0.047" fill="#fce6bf" d="M 60.5,71.5 C 60.6107,72.1174 60.944,72.6174 61.5,73C 60.8906,74.9483 60.224,76.7816 59.5,78.5C 59.1984,75.9407 59.5318,73.6074 60.5,71.5 Z"/></g>
<g><path style="opacity:0.161" fill="#feeac2" d="M 103.5,73.5 C 103.833,73.5 104.167,73.5 104.5,73.5C 104.557,74.609 104.89,75.609 105.5,76.5C 92.6557,76.1713 79.989,76.5046 67.5,77.5C 67.1667,77.5 66.8333,77.5 66.5,77.5C 65.2617,77.19 65.2617,76.69 66.5,76C 79.2074,76.1507 91.5407,75.3174 103.5,73.5 Z"/></g>
<g><path style="opacity:0.043" fill="#fff4d9" d="M 111.5,72.5 C 112.219,74.7638 112.552,77.0971 112.5,79.5C 111.62,77.8632 110.954,76.0299 110.5,74C 110.57,73.2352 110.903,72.7352 111.5,72.5 Z"/></g>
<g><path style="opacity:1" fill="#e38329" d="M 67.5,77.5 C 79.989,76.5046 92.6557,76.1713 105.5,76.5C 106.506,76.9377 106.506,77.6043 105.5,78.5C 105.5,81.1667 105.5,83.8333 105.5,86.5C 104.523,83.7131 104.19,80.7131 104.5,77.5C 92.1667,77.5 79.8333,77.5 67.5,77.5 Z"/></g>
<g><path style="opacity:1" fill="#ec8b2f" d="M 110.5,61.5 C 112.599,62.3697 112.932,63.703 111.5,65.5C 114.39,74.9553 116.057,84.622 116.5,94.5C 115.662,94.1583 115.328,93.4916 115.5,92.5C 115.5,92.1667 115.5,91.8333 115.5,91.5C 115.768,89.901 115.434,88.5676 114.5,87.5C 114.706,84.5049 114.04,81.8383 112.5,79.5C 112.552,77.0971 112.219,74.7638 111.5,72.5C 111.5,72.1667 111.5,71.8333 111.5,71.5C 110.793,68.2139 110.46,64.8806 110.5,61.5 Z"/></g>
<g><path style="opacity:0.922" fill="#f5be82" d="M 168.5,69.5 C 169.167,71.1667 169.833,72.8333 170.5,74.5C 170.5,75.1667 170.5,75.8333 170.5,76.5C 169.833,76.5 169.5,76.8333 169.5,77.5C 168.527,75.0521 168.194,72.3854 168.5,69.5 Z"/></g>
<g><path style="opacity:1" fill="#fc7f02" d="M 66.5,77.5 C 66.8333,77.5 67.1667,77.5 67.5,77.5C 79.8333,77.5 92.1667,77.5 104.5,77.5C 104.19,80.7131 104.523,83.7131 105.5,86.5C 105.5,87.1667 105.5,87.8333 105.5,88.5C 105.5,89.5 105.5,90.5 105.5,91.5C 92.5,91.5 79.5,91.5 66.5,91.5C 66.5,90.5 66.5,89.5 66.5,88.5C 66.5,85.1667 66.5,81.8333 66.5,78.5C 66.5,78.1667 66.5,77.8333 66.5,77.5 Z"/></g>
<g><path style="opacity:0.643" fill="#f6cd94" d="M 58.5,78.5 C 58.8333,78.5 59.1667,78.5 59.5,78.5C 59.7847,81.8291 59.1181,84.8291 57.5,87.5C 57.2641,84.3915 57.5975,81.3915 58.5,78.5 Z"/></g>
<g><path style="opacity:0.231" fill="#fde0ae" d="M 2.5,77.5 C 2.52341,85.1834 2.85675,92.8501 3.5,100.5C 2.02074,96.0907 1.35407,91.424 1.5,86.5C 1.50199,83.3138 1.83533,80.3138 2.5,77.5 Z"/></g>
<g><path style="opacity:1" fill="#ee8f34" d="M 7.5,54.5 C 5.00173,70.3844 4.00173,86.3844 4.5,102.5C 3.83333,102.5 3.5,102.167 3.5,101.5C 3.5,101.167 3.5,100.833 3.5,100.5C 2.85675,92.8501 2.52341,85.1834 2.5,77.5C 2.5,77.1667 2.5,76.8333 2.5,76.5C 3.47944,73.3752 3.81277,70.0419 3.5,66.5C 3.33982,64.8008 3.50649,63.1341 4,61.5C 5.02139,59.0297 6.18805,56.6964 7.5,54.5 Z"/></g>
<g><path style="opacity:1" fill="#f29b49" d="M 58.5,78.5 C 57.5975,81.3915 57.2641,84.3915 57.5,87.5C 55.783,90.8448 55.1164,94.5115 55.5,98.5C 55.6558,102.764 54.9891,106.764 53.5,110.5C 52.8333,111.5 52.1667,112.5 51.5,113.5C 52.0083,104.717 53.175,96.0503 55,87.5C 55.5354,84.031 56.7021,81.031 58.5,78.5 Z"/></g>
<g><path style="opacity:0.027" fill="#ffeebb" d="M 112.5,79.5 C 114.04,81.8383 114.706,84.5049 114.5,87.5C 112.777,85.22 112.111,82.5533 112.5,79.5 Z"/></g>
<g><path style="opacity:0.153" fill="#fee5c8" d="M 114.5,87.5 C 115.434,88.5676 115.768,89.901 115.5,91.5C 113.255,90.7081 112.922,89.3747 114.5,87.5 Z"/></g>
<g><path style="opacity:0.555" fill="#fbd5ad" d="M 66.5,78.5 C 66.5,81.8333 66.5,85.1667 66.5,88.5C 65.5655,89.5676 65.2322,90.901 65.5,92.5C 79.1667,92.5 92.8333,92.5 106.5,92.5C 106.768,90.901 106.434,89.5676 105.5,88.5C 105.5,87.8333 105.5,87.1667 105.5,86.5C 105.5,83.8333 105.5,81.1667 105.5,78.5C 106.224,80.2184 106.891,82.0517 107.5,84C 107.382,87.0299 107.215,90.1965 107,93.5C 101.746,94.1551 96.4125,94.4885 91,94.5C 82.4353,94.1153 73.9353,93.9486 65.5,94C 64.72,90.6169 64.3867,87.2836 64.5,84C 65.1094,82.0517 65.776,80.2184 66.5,78.5 Z"/></g>
<g><path style="opacity:1" fill="#e68521" d="M 66.5,88.5 C 66.5,89.5 66.5,90.5 66.5,91.5C 79.5,91.5 92.5,91.5 105.5,91.5C 105.5,90.5 105.5,89.5 105.5,88.5C 106.434,89.5676 106.768,90.901 106.5,92.5C 92.8333,92.5 79.1667,92.5 65.5,92.5C 65.2322,90.901 65.5655,89.5676 66.5,88.5 Z"/></g>
<g><path style="opacity:0.4" fill="#f9d099" d="M 57.5,87.5 C 57.1916,91.3597 56.5249,95.0264 55.5,98.5C 55.1164,94.5115 55.783,90.8448 57.5,87.5 Z"/></g>
<g><path style="opacity:0.047" fill="#fff0cf" d="M 115.5,92.5 C 115.328,93.4916 115.662,94.1583 116.5,94.5C 116.833,96.5 117.167,98.5 117.5,100.5C 118.051,103.807 118.384,107.14 118.5,110.5C 117.219,105.113 115.885,99.6129 114.5,94C 114.57,93.2352 114.903,92.7352 115.5,92.5 Z"/></g>
<g><path style="opacity:0.879" fill="#f7b984" d="M 107.5,97.5 C 107.5,98.5 107.5,99.5 107.5,100.5C 106.596,99.791 106.263,98.791 106.5,97.5C 92.8333,97.5 79.1667,97.5 65.5,97.5C 65.7214,100.279 65.388,102.946 64.5,105.5C 64.1667,105.5 63.8333,105.5 63.5,105.5C 63.2601,102.421 63.5934,99.4212 64.5,96.5C 78.4881,95.3339 92.4881,95.1672 106.5,96C 107.056,96.3826 107.389,96.8826 107.5,97.5 Z"/></g>
<g><path style="opacity:1" fill="#fb8003" d="M 107.5,100.5 C 107.5,103.167 107.5,105.833 107.5,108.5C 107.5,111.5 107.5,114.5 107.5,117.5C 93.1667,117.5 78.8333,117.5 64.5,117.5C 64.5,113.5 64.5,109.5 64.5,105.5C 65.388,102.946 65.7214,100.279 65.5,97.5C 79.1667,97.5 92.8333,97.5 106.5,97.5C 106.263,98.791 106.596,99.791 107.5,100.5 Z"/></g>
<g><path style="opacity:1" fill="#f8c893" d="M 169.5,77.5 C 169.833,77.5 170.167,77.5 170.5,77.5C 170.5,83.5 170.5,89.5 170.5,95.5C 170.395,100.284 169.062,104.951 166.5,109.5C 168.355,98.9253 169.355,88.2587 169.5,77.5 Z"/></g>
<g><path style="opacity:0.298" fill="#ffe1bc" d="M 3.5,101.5 C 3.5,102.167 3.83333,102.5 4.5,102.5C 4.67412,104.861 5.00745,107.194 5.5,109.5C 4.88258,109.389 4.38258,109.056 4,108.5C 3.6892,106.444 3.1892,104.444 2.5,102.5C 2.62358,101.893 2.95691,101.56 3.5,101.5 Z"/></g>
<g><path style="opacity:0.271" fill="#ffecd2" d="M 107.5,97.5 C 108.402,100.983 109.068,104.65 109.5,108.5C 109.48,109.726 109.147,110.726 108.5,111.5C 108.737,110.209 108.404,109.209 107.5,108.5C 107.5,105.833 107.5,103.167 107.5,100.5C 107.5,99.5 107.5,98.5 107.5,97.5 Z"/></g>
<g><path style="opacity:1" fill="#f4a257" d="M 117.5,100.5 C 118.158,101.398 118.824,102.398 119.5,103.5C 120.319,108.829 120.986,114.162 121.5,119.5C 121.167,119.5 120.833,119.5 120.5,119.5C 118.874,116.754 118.207,113.754 118.5,110.5C 118.384,107.14 118.051,103.807 117.5,100.5 Z"/></g>
<g><path style="opacity:0.639" fill="#f6cf94" d="M 5.5,110.5 C 7.27983,111.99 7.94649,113.99 7.5,116.5C 6.26162,114.786 5.59495,112.786 5.5,110.5 Z"/></g>
<g><path style="opacity:0.078" fill="#ffe5c1" d="M 166.5,109.5 C 166.472,112.916 165.472,115.916 163.5,118.5C 163.928,115.215 164.928,112.215 166.5,109.5 Z"/></g>
<g><path style="opacity:0.035" fill="#fee4c6" d="M 53.5,110.5 C 53.678,114.122 53.0114,117.456 51.5,120.5C 51.5,118.5 51.5,116.5 51.5,114.5C 51.5,114.167 51.5,113.833 51.5,113.5C 52.1667,112.5 52.8333,111.5 53.5,110.5 Z"/></g>
<g><path style="opacity:0.816" fill="#f19f54" d="M 63.5,105.5 C 63.8333,105.5 64.1667,105.5 64.5,105.5C 64.5,109.5 64.5,113.5 64.5,117.5C 78.8333,117.5 93.1667,117.5 107.5,117.5C 107.5,114.5 107.5,111.5 107.5,108.5C 108.404,109.209 108.737,110.209 108.5,111.5C 108.5,111.833 108.5,112.167 108.5,112.5C 108.5,114.5 108.5,116.5 108.5,118.5C 93.5,118.5 78.5,118.5 63.5,118.5C 63.5,116.5 63.5,114.5 63.5,112.5C 62.5615,110.244 62.5615,107.91 63.5,105.5 Z"/></g>
<g><path style="opacity:0.204" fill="#fee5b6" d="M 7.5,116.5 C 9.10422,117.287 9.77089,118.62 9.5,120.5C 8.32627,119.486 7.6596,118.153 7.5,116.5 Z"/></g>
<g><path style="opacity:0.024" fill="#fffbd8" d="M 63.5,112.5 C 63.5,114.5 63.5,116.5 63.5,118.5C 78.5,118.5 93.5,118.5 108.5,118.5C 108.5,116.5 108.5,114.5 108.5,112.5C 109.224,114.218 109.891,116.052 110.5,118C 108.627,118.953 108.294,120.12 109.5,121.5C 107.585,121.784 105.919,121.451 104.5,120.5C 92.5351,119.638 78.5351,119.138 62.5,119C 62.1667,118.667 61.8333,118.333 61.5,118C 62.1094,116.052 62.776,114.218 63.5,112.5 Z"/></g>
<g><path style="opacity:0.471" fill="#fee2b9" d="M 120.5,119.5 C 120.833,119.5 121.167,119.5 121.5,119.5C 123.5,130.833 125.5,142.167 127.5,153.5C 127.5,154.167 127.5,154.833 127.5,155.5C 124.367,143.506 122.034,131.506 120.5,119.5 Z"/></g>
<g><path style="opacity:0.255" fill="#fde3b4" d="M 163.5,118.5 C 163.771,120.38 163.104,121.713 161.5,122.5C 161.229,120.62 161.896,119.287 163.5,118.5 Z"/></g>
<g><path style="opacity:0.667" fill="#f9d1a6" d="M 104.5,120.5 C 105.919,121.451 107.585,121.784 109.5,121.5C 110.254,124.023 110.92,126.689 111.5,129.5C 111.376,130.107 111.043,130.44 110.5,130.5C 109.527,128.052 109.194,125.385 109.5,122.5C 93.8333,122.5 78.1667,122.5 62.5,122.5C 62.8064,125.385 62.4731,128.052 61.5,130.5C 61.0618,130.565 60.7284,130.399 60.5,130C 61.1667,127 61.8333,124 62.5,121C 76.496,120.5 90.496,120.333 104.5,120.5 Z"/></g>
<g><path style="opacity:1" fill="#ea8522" d="M 110.5,130.5 C 110.5,131.833 110.5,133.167 110.5,134.5C 110.5,136.833 110.5,139.167 110.5,141.5C 96.8333,141.5 83.1667,141.5 69.5,141.5C 81.0385,140.814 92.7052,140.147 104.5,139.5C 106.198,140.681 107.865,140.681 109.5,139.5C 108.549,134.23 108.215,128.897 108.5,123.5C 93.5,123.5 78.5,123.5 63.5,123.5C 63.0343,129.491 62.701,135.491 62.5,141.5C 62.1667,141.5 61.8333,141.5 61.5,141.5C 61.5,139.167 61.5,136.833 61.5,134.5C 61.5,133.167 61.5,131.833 61.5,130.5C 62.4731,128.052 62.8064,125.385 62.5,122.5C 78.1667,122.5 93.8333,122.5 109.5,122.5C 109.194,125.385 109.527,128.052 110.5,130.5 Z"/></g>
<g><path style="opacity:1" fill="#fc8002" d="M 69.5,141.5 C 67.1667,141.5 64.8333,141.5 62.5,141.5C 62.701,135.491 63.0343,129.491 63.5,123.5C 78.5,123.5 93.5,123.5 108.5,123.5C 108.215,128.897 108.549,134.23 109.5,139.5C 107.865,140.681 106.198,140.681 104.5,139.5C 92.7052,140.147 81.0385,140.814 69.5,141.5 Z"/></g>
<g><path style="opacity:0.478" fill="#fbcc9c" d="M 161.5,122.5 C 161.573,124.027 160.906,125.027 159.5,125.5C 159.285,123.821 159.952,122.821 161.5,122.5 Z"/></g>
<g><path style="opacity:0.051" fill="#ffe9c4" d="M 9.5,120.5 C 11.588,122.336 12.9213,124.669 13.5,127.5C 11.3311,125.66 9.99772,123.326 9.5,120.5 Z"/></g>
<g><path style="opacity:0.078" fill="#fee4c1" d="M 13.5,127.5 C 14.9063,127.973 15.573,128.973 15.5,130.5C 14.0937,130.027 13.427,129.027 13.5,127.5 Z"/></g>
<g><path style="opacity:0.42" fill="#fee0b5" d="M 51.5,120.5 C 50.7843,127.412 49.451,134.079 47.5,140.5C 48.1361,134.483 48.9694,128.483 50,122.5C 50.2784,121.584 50.7784,120.918 51.5,120.5 Z"/></g>
<g><path style="opacity:0.027" fill="#ffeecd" d="M 15.5,131.5 C 15.8333,131.5 16.1667,131.5 16.5,131.5C 17.1098,132.391 17.4431,133.391 17.5,134.5C 16.0937,134.027 15.427,133.027 15.5,131.5 Z"/></g>
<g><path style="opacity:1" fill="#f1ac67" d="M 16.5,131.5 C 19.8548,134.029 22.1882,137.363 23.5,141.5C 21.2733,139.393 19.2733,137.06 17.5,134.5C 17.4431,133.391 17.1098,132.391 16.5,131.5 Z"/></g>
<g><path style="opacity:1" fill="#f4a04f" d="M 159.5,125.5 C 157.822,130.197 155.156,134.197 151.5,137.5C 151.167,137.5 150.833,137.5 150.5,137.5C 150.5,136.167 150.5,134.833 150.5,133.5C 151.5,133.5 152.5,133.5 153.5,133.5C 153.776,129.656 155.776,126.99 159.5,125.5 Z"/></g>
<g><path style="opacity:1" fill="#f18620" d="M 51.5,114.5 C 51.5,116.5 51.5,118.5 51.5,120.5C 50.7784,120.918 50.2784,121.584 50,122.5C 48.9694,128.483 48.1361,134.483 47.5,140.5C 46.087,143.219 45.4203,146.219 45.5,149.5C 45.5,150.833 45.5,152.167 45.5,153.5C 44.2101,154.058 43.3768,155.058 43,156.5C 42.3292,155.748 41.4959,155.414 40.5,155.5C 40.1667,154.833 39.8333,154.167 39.5,153.5C 40.4959,153.414 41.3292,153.748 42,154.5C 42.6667,152.833 42.6667,151.167 42,149.5C 40.8173,150.731 39.6507,150.731 38.5,149.5C 37.1666,148.38 36.6666,147.047 37,145.5C 39.0413,147.65 41.5413,148.65 44.5,148.5C 44.9529,136.664 47.2862,125.331 51.5,114.5 Z"/></g>
<g><path style="opacity:0.024" fill="#fde5ba" d="M 150.5,137.5 C 150.833,137.5 151.167,137.5 151.5,137.5C 150.92,139.749 149.587,141.415 147.5,142.5C 148.075,140.589 149.075,138.922 150.5,137.5 Z"/></g>
<g><path style="opacity:0.753" fill="#f4cc95" d="M 23.5,141.5 C 25.8333,141.833 27.1667,143.167 27.5,145.5C 25.8333,144.5 24.5,143.167 23.5,141.5 Z"/></g>
<g><path style="opacity:0.68" fill="#fcb46b" d="M 110.5,134.5 C 111.216,136.556 111.883,138.723 112.5,141C 111.956,141.717 111.289,142.217 110.5,142.5C 93.9915,142.83 77.6581,142.496 61.5,141.5C 61.8333,141.5 62.1667,141.5 62.5,141.5C 64.8333,141.5 67.1667,141.5 69.5,141.5C 83.1667,141.5 96.8333,141.5 110.5,141.5C 110.5,139.167 110.5,136.833 110.5,134.5 Z"/></g>
<g><path style="opacity:0.008" fill="#fffaf4" d="M 61.5,134.5 C 61.5,136.833 61.5,139.167 61.5,141.5C 77.6581,142.496 93.9915,142.83 110.5,142.5C 94.0051,143.662 77.3384,143.828 60.5,143C 60.0426,142.586 59.7093,142.086 59.5,141.5C 60.0671,139.018 60.7337,136.684 61.5,134.5 Z"/></g>
<g><path style="opacity:1" fill="#faad66" d="M 147.5,142.5 C 146.167,144.5 144.5,146.167 142.5,147.5C 142.5,145.833 142.5,144.167 142.5,142.5C 144.167,142.5 145.833,142.5 147.5,142.5 Z"/></g>
<g><path style="opacity:0.016" fill="#fff0c8" d="M 47.5,140.5 C 47.9321,143.877 47.2655,146.877 45.5,149.5C 45.4203,146.219 46.087,143.219 47.5,140.5 Z"/></g>
<g><path style="opacity:0.835" fill="#f9cf9a" d="M 27.5,145.5 C 29.7488,146.08 31.4154,147.413 32.5,149.5C 30.2512,148.92 28.5846,147.587 27.5,145.5 Z"/></g>
<g><path style="opacity:0.807" fill="#f4c69a" d="M 112.5,148.5 C 112.5,150.167 112.5,151.833 112.5,153.5C 111.532,151.393 111.198,149.059 111.5,146.5C 94.5,146.5 77.5,146.5 60.5,146.5C 60.7678,148.099 60.4345,149.432 59.5,150.5C 59.2606,148.533 59.5939,146.699 60.5,145C 77.5,144.333 94.5,144.333 111.5,145C 112.337,146.011 112.67,147.178 112.5,148.5 Z"/></g>
<g><path style="opacity:1" fill="#ec8928" d="M 112.5,153.5 C 112.5,157.167 112.5,160.833 112.5,164.5C 109.5,165.167 106.5,165.833 103.5,166.5C 105.557,164.144 108.224,163.144 111.5,163.5C 111.02,158.178 110.687,152.845 110.5,147.5C 94.5,147.5 78.5,147.5 62.5,147.5C 61.5117,152.789 60.845,158.122 60.5,163.5C 63.9942,163.532 66.6608,164.865 68.5,167.5C 66.901,167.768 65.5676,167.434 64.5,166.5C 63.2196,165.069 61.5529,164.402 59.5,164.5C 59.5,160.5 59.5,156.5 59.5,152.5C 59.5,151.833 59.5,151.167 59.5,150.5C 60.4345,149.432 60.7678,148.099 60.5,146.5C 77.5,146.5 94.5,146.5 111.5,146.5C 111.198,149.059 111.532,151.393 112.5,153.5 Z"/></g>
<g><path style="opacity:1" fill="#fb8003" d="M 103.5,166.5 C 100.67,166.963 98.003,167.629 95.5,168.5C 86.8184,168.479 78.1517,168.146 69.5,167.5C 69.1667,167.5 68.8333,167.5 68.5,167.5C 66.6608,164.865 63.9942,163.532 60.5,163.5C 60.845,158.122 61.5117,152.789 62.5,147.5C 78.5,147.5 94.5,147.5 110.5,147.5C 110.687,152.845 111.02,158.178 111.5,163.5C 108.224,163.144 105.557,164.144 103.5,166.5 Z"/></g>
<g><path style="opacity:0.004" fill="#fff3dc" d="M 141.5,148.5 C 140.738,150.262 139.404,151.262 137.5,151.5C 138.262,149.738 139.596,148.738 141.5,148.5 Z"/></g>
<g><path style="opacity:0.263" fill="#f9d2a0" d="M 32.5,149.5 C 34.7488,150.08 36.4154,151.413 37.5,153.5C 35.2512,152.92 33.5846,151.587 32.5,149.5 Z"/></g>
<g><path style="opacity:0.004" fill="#fff0cf" d="M 137.5,151.5 C 137.027,152.906 136.027,153.573 134.5,153.5C 134.973,152.094 135.973,151.427 137.5,151.5 Z"/></g>
<g><path style="opacity:1" fill="#f6b36e" d="M 127.5,153.5 C 129.833,153.5 132.167,153.5 134.5,153.5C 132.645,155.033 130.812,156.7 129,158.5C 127.961,157.756 127.461,156.756 127.5,155.5C 127.5,154.833 127.5,154.167 127.5,153.5 Z"/></g>
<g><path style="opacity:0.341" fill="#fed7ac" d="M 37.5,153.5 C 38.1667,153.5 38.8333,153.5 39.5,153.5C 39.8333,154.167 40.1667,154.833 40.5,155.5C 38.9731,155.573 37.9731,154.906 37.5,153.5 Z"/></g>
<g><path style="opacity:0.502" fill="#f5debb" d="M 45.5,153.5 C 45.1558,158.913 43.4891,159.579 40.5,155.5C 41.4959,155.414 42.3292,155.748 43,156.5C 43.3768,155.058 44.2101,154.058 45.5,153.5 Z"/></g>
<g><path style="opacity:0.325" fill="#fee6c8" d="M 59.5,152.5 C 59.5,156.5 59.5,160.5 59.5,164.5C 61.5529,164.402 63.2196,165.069 64.5,166.5C 61.7743,166.736 59.441,165.903 57.5,164C 58.1378,160.065 58.8045,156.231 59.5,152.5 Z"/></g>
<g><path style="opacity:0.004" fill="#ffeacb" d="M 112.5,148.5 C 113.816,154.013 113.816,159.68 112.5,165.5C 106.769,167.452 101.102,168.452 95.5,168.5C 98.003,167.629 100.67,166.963 103.5,166.5C 106.5,165.833 109.5,165.167 112.5,164.5C 112.5,160.833 112.5,157.167 112.5,153.5C 112.5,151.833 112.5,150.167 112.5,148.5 Z"/></g>
<g><path style="opacity:0.22" fill="#fedeb9" d="M 69.5,167.5 C 78.1517,168.146 86.8184,168.479 95.5,168.5C 92.1833,169.165 88.6833,169.499 85,169.5C 79.5793,169.674 74.4127,169.007 69.5,167.5 Z"/></g>
</svg>
